<svg width="22" height="12" viewBox="0 0 22 12" fill="none" xmlns="http://www.w3.org/2000/svg">
<path d="M2 9.9999H20C20.2833 9.9999 20.5208 10.0957 20.7125 10.2874C20.9042 10.4791 21 10.7166 21 10.9999C21 11.2832 20.9042 11.5207 20.7125 11.7124C20.5208 11.9041 20.2833 11.9999 20 11.9999H2C1.71667 11.9999 1.47917 11.9041 1.2875 11.7124C1.09583 11.5207 1 11.2832 1 10.9999C1 10.7166 1.09583 10.4791 1.2875 10.2874C1.47917 10.0957 1.71667 9.9999 2 9.9999ZM3 4.4499L2.525 5.2999C2.425 5.48324 2.275 5.5999 2.075 5.6499C1.875 5.6999 1.68333 5.6749 1.5 5.5749C1.31667 5.4749 1.2 5.3249 1.15 5.1249C1.1 4.9249 1.125 4.73324 1.225 4.5499L1.7 3.6999H0.75C0.533333 3.6999 0.354167 3.62907 0.2125 3.4874C0.0708333 3.34574 0 3.16657 0 2.9499C0 2.73324 0.0708333 2.55407 0.2125 2.4124C0.354167 2.27074 0.533333 2.1999 0.75 2.1999H1.7L1.225 1.3999C1.125 1.21657 1.1 1.0249 1.15 0.824902C1.2 0.624902 1.31667 0.474902 1.5 0.374902C1.68333 0.274902 1.875 0.249902 2.075 0.299902C2.275 0.349902 2.425 0.466569 2.525 0.649902L3 1.4499L3.475 0.649902C3.575 0.466569 3.725 0.349902 3.925 0.299902C4.125 0.249902 4.31667 0.274902 4.5 0.374902C4.68333 0.474902 4.8 0.624902 4.85 0.824902C4.9 1.0249 4.875 1.21657 4.775 1.3999L4.3 2.1999H5.25C5.46667 2.1999 5.64583 2.27074 5.7875 2.4124C5.92917 2.55407 6 2.73324 6 2.9499C6 3.16657 5.92917 3.34574 5.7875 3.4874C5.64583 3.62907 5.46667 3.6999 5.25 3.6999H4.3L4.775 4.5499C4.875 4.73324 4.9 4.9249 4.85 5.1249C4.8 5.3249 4.68333 5.4749 4.5 5.5749C4.31667 5.6749 4.125 5.6999 3.925 5.6499C3.725 5.5999 3.575 5.48324 3.475 5.2999L3 4.4499ZM11 4.4499L10.525 5.2999C10.425 5.48324 10.275 5.5999 10.075 5.6499C9.875 5.6999 9.68333 5.6749 9.5 5.5749C9.31667 5.4749 9.2 5.3249 9.15 5.1249C9.1 4.9249 9.125 4.73324 9.225 4.5499L9.7 3.6999H8.75C8.53333 3.6999 8.35417 3.62907 8.2125 3.4874C8.07083 3.34574 8 3.16657 8 2.9499C8 2.73324 8.07083 2.55407 8.2125 2.4124C8.35417 2.27074 8.53333 2.1999 8.75 2.1999H9.7L9.225 1.3999C9.125 1.21657 9.1 1.0249 9.15 0.824902C9.2 0.624902 9.31667 0.474902 9.5 0.374902C9.68333 0.274902 9.875 0.249902 10.075 0.299902C10.275 0.349902 10.425 0.466569 10.525 0.649902L11 1.4499L11.475 0.649902C11.575 0.466569 11.725 0.349902 11.925 0.299902C12.125 0.249902 12.3167 0.274902 12.5 0.374902C12.6833 0.474902 12.8 0.624902 12.85 0.824902C12.9 1.0249 12.875 1.21657 12.775 1.3999L12.3 2.1999H13.25C13.4667 2.1999 13.6458 2.27074 13.7875 2.4124C13.9292 2.55407 14 2.73324 14 2.9499C14 3.16657 13.9292 3.34574 13.7875 3.4874C13.6458 3.62907 13.4667 3.6999 13.25 3.6999H12.3L12.775 4.5499C12.875 4.73324 12.9 4.9249 12.85 5.1249C12.8 5.3249 12.6833 5.4749 12.5 5.5749C12.3167 5.6749 12.125 5.6999 11.925 5.6499C11.725 5.5999 11.575 5.48324 11.475 5.2999L11 4.4499ZM19 4.4499L18.525 5.2999C18.425 5.48324 18.275 5.5999 18.075 5.6499C17.875 5.6999 17.6833 5.6749 17.5 5.5749C17.3167 5.4749 17.2 5.3249 17.15 5.1249C17.1 4.9249 17.125 4.73324 17.225 4.5499L17.7 3.6999H16.75C16.5333 3.6999 16.3542 3.62907 16.2125 3.4874C16.0708 3.34574 16 3.16657 16 2.9499C16 2.73324 16.0708 2.55407 16.2125 2.4124C16.3542 2.27074 16.5333 2.1999 16.75 2.1999H17.7L17.225 1.3999C17.125 1.21657 17.1 1.0249 17.15 0.824902C17.2 0.624902 17.3167 0.474902 17.5 0.374902C17.6833 0.274902 17.875 0.249902 18.075 0.299902C18.275 0.349902 18.425 0.466569 18.525 0.649902L19 1.4499L19.475 0.649902C19.575 0.466569 19.725 0.349902 19.925 0.299902C20.125 0.249902 20.3167 0.274902 20.5 0.374902C20.6833 0.474902 20.8 0.624902 20.85 0.824902C20.9 1.0249 20.875 1.21657 20.775 1.3999L20.3 2.1999H21.25C21.4667 2.1999 21.6458 2.27074 21.7875 2.4124C21.9292 2.55407 22 2.73324 22 2.9499C22 3.16657 21.9292 3.34574 21.7875 3.4874C21.6458 3.62907 21.4667 3.6999 21.25 3.6999H20.3L20.775 4.5499C20.875 4.73324 20.9 4.9249 20.85 5.1249C20.8 5.3249 20.6833 5.4749 20.5 5.5749C20.3167 5.6749 20.125 5.6999 19.925 5.6499C19.725 5.5999 19.575 5.48324 19.475 5.2999L19 4.4499Z" fill="#2E3EDF"/>
</svg>
